<svg width="29" height="40" viewBox="0 0 29 40" fill="none" xmlns="http://www.w3.org/2000/svg">
<path d="M28.5714 14.4928C28.5714 22.4969 14.2857 40 14.2857 40C14.2857 40 0 22.4969 0 14.4928C0 6.48863 6.39593 0 14.2857 0C22.1755 0 28.5714 6.48863 28.5714 14.4928Z" fill="#7F57F1"/>
<path fill-rule="evenodd" clip-rule="evenodd" d="M7.91782 5.06877C7.09519 5.64398 6.35132 6.32406 5.70556 7.08963C8.34441 6.84464 11.697 7.24468 15.5893 9.19084C19.7457 11.269 23.0927 11.3393 25.422 10.89C25.2106 10.2501 24.9445 9.63503 24.6294 9.05037C21.9629 9.3316 18.5445 8.95935 14.5607 6.96749C12.0309 5.7026 9.80097 5.18155 7.91782 5.06877ZM23.0718 6.83332C20.966 4.48062 17.9059 3 14.5 3C13.4998 3 12.5293 3.12771 11.6041 3.3677C12.8572 3.7096 14.1883 4.20979 15.5893 4.9103C18.506 6.36865 21.0242 6.83822 23.0718 6.83332ZM25.92 13.1362C23.106 13.6918 19.2201 13.5777 14.5607 11.248C10.2047 9.07004 6.73775 9.09746 4.39949 9.61709C4.2788 9.64389 4.16095 9.67206 4.04594 9.70139C3.73981 10.3672 3.49544 11.0673 3.3201 11.7943C3.50737 11.7443 3.70089 11.6968 3.90054 11.6524C6.73726 11.022 10.7453 11.0494 15.5893 13.4714C19.9453 15.6494 23.4123 15.6219 25.7506 15.1023C25.8307 15.0845 25.9096 15.0661 25.9872 15.0472C25.9957 14.8659 26 14.6834 26 14.5C26 14.0386 25.9729 13.5834 25.92 13.1362ZM25.6118 17.4741C22.825 17.9613 19.0523 17.7743 14.5607 15.5286C10.2047 13.3506 6.73775 13.378 4.39949 13.8976C3.88047 14.0129 3.41356 14.1534 3.00168 14.3017C3.00056 14.3676 3 14.4338 3 14.5C3 20.8513 8.14872 26 14.5 26C19.8228 26 24.301 22.3838 25.6118 17.4741Z" fill="white"/>
</svg>
