<svg width="29" height="40" viewBox="0 0 29 40" fill="none" xmlns="http://www.w3.org/2000/svg">
<path d="M28.5714 14.4928C28.5714 22.4969 14.2857 40 14.2857 40C14.2857 40 0 22.4969 0 14.4928C0 6.48863 6.39593 0 14.2857 0C22.1755 0 28.5714 6.48863 28.5714 14.4928Z" fill="#F15757"/>
<path fill-rule="evenodd" clip-rule="evenodd" d="M14.2857 26.087C20.5975 26.087 25.7143 20.8961 25.7143 14.4927C25.7143 8.08946 20.5975 2.89855 14.2857 2.89855C7.97385 2.89855 2.85712 8.08946 2.85712 14.4927C2.85712 20.8961 7.97385 26.087 14.2857 26.087ZM17.851 8.29962C18.0245 7.67424 17.4263 7.30443 16.88 7.69931L9.25318 13.2114C8.66067 13.6396 8.75387 14.4927 9.39318 14.4927H11.4015V14.477H15.3157L12.1264 15.6186L10.7204 20.6859C10.5468 21.3113 11.145 21.6811 11.6914 21.2862L19.3182 15.7742C19.9107 15.346 19.8175 14.4927 19.1782 14.4927H16.1326L17.851 8.29962Z" fill="white"/>
</svg>
