<svg width="29" height="40" viewBox="0 0 29 40" fill="none" xmlns="http://www.w3.org/2000/svg">
<path d="M28.5714 14.4928C28.5714 22.4969 14.2857 40 14.2857 40C14.2857 40 0 22.4969 0 14.4928C0 6.48863 6.39593 0 14.2857 0C22.1755 0 28.5714 6.48863 28.5714 14.4928Z" fill="#F97316"/>
<path d="M17.2446 3.51156L14.9895 2.89854L13.0891 10.0938L11.3734 3.59787L9.11822 4.21089L10.972 11.2292L6.35476 6.54512L4.7039 8.21991L9.76838 13.3578L3.46137 11.6434L2.85712 13.9311L9.74831 15.8044C9.66941 15.4592 9.62767 15.0995 9.62767 14.7298C9.62767 12.1137 11.7182 9.99283 14.297 9.99283C16.8758 9.99283 18.9664 12.1137 18.9664 14.7298C18.9664 15.0971 18.9251 15.4546 18.8472 15.7978L25.11 17.5002L25.7143 15.2124L18.7957 13.3317L25.1031 11.6171L24.4988 9.32936L17.5805 11.21L22.1977 6.52589L20.5468 4.85111L15.5526 9.91773L17.2446 3.51156Z" fill="white"/>
<path d="M18.8411 15.8244C18.6477 16.6537 18.2396 17.3986 17.6795 17.9955L22.2166 22.5984L23.8675 20.9236L18.8411 15.8244Z" fill="white"/>
<path d="M17.6336 18.0437C17.0668 18.631 16.3505 19.0693 15.5471 19.2952L17.1981 25.546L19.4532 24.9329L17.6336 18.0437Z" fill="white"/>
<path d="M15.4629 19.318C15.0902 19.4152 14.6996 19.4669 14.297 19.4669C13.8657 19.4669 13.4481 19.4075 13.0516 19.2965L11.3991 25.553L13.6542 26.166L15.4629 19.318Z" fill="white"/>
<path d="M12.9719 19.2734C12.1809 19.0363 11.4773 18.5924 10.922 18.0034L6.37371 22.6176L8.02457 24.2924L12.9719 19.2734Z" fill="white"/>
<path d="M10.8841 17.9626C10.3383 17.3699 9.94079 16.6349 9.75158 15.8184L3.46831 17.5264L4.07256 19.8142L10.8841 17.9626Z" fill="white"/>
</svg>
