<svg width="29" height="40" viewBox="0 0 29 40" fill="none" xmlns="http://www.w3.org/2000/svg">
<path d="M28.5714 14.4928C28.5714 22.4969 14.2857 40 14.2857 40C14.2857 40 0 22.4969 0 14.4928C0 6.48863 6.39593 0 14.2857 0C22.1755 0 28.5714 6.48863 28.5714 14.4928Z" fill="#1DD1A1"/>
<path fill-rule="evenodd" clip-rule="evenodd" d="M14.2857 26.087C20.5976 26.087 25.7143 20.8961 25.7143 14.4927C25.7143 8.08946 20.5976 2.89855 14.2857 2.89855C7.97386 2.89855 2.85712 8.08946 2.85712 14.4927C2.85712 20.8961 7.97386 26.087 14.2857 26.087ZM16.0497 11.8566C17.0239 10.8682 17.0239 9.26584 16.0497 8.27749C15.0754 7.28915 13.496 7.28915 12.5217 8.27749C11.5476 9.26584 11.5476 10.8682 12.5217 11.8566L14.2857 13.6461L16.0497 11.8566ZM16.8843 16.2823C17.8585 17.2707 19.438 17.2707 20.4122 16.2823C21.3864 15.294 21.3864 13.6916 20.4122 12.7032C19.438 11.7149 17.8585 11.7149 16.8843 12.7032L15.1203 14.4928L16.8843 16.2823ZM16.0497 20.7081C17.0239 19.7197 17.0239 18.1173 16.0497 17.129L14.2857 15.3395L12.5217 17.129C11.5476 18.1173 11.5476 19.7197 12.5217 20.7081C13.496 21.6964 15.0754 21.6964 16.0497 20.7081ZM8.1592 16.2823C7.185 15.294 7.185 13.6916 8.1592 12.7032C9.13344 11.7149 10.7129 11.7149 11.6872 12.7032L13.4511 14.4928L11.6872 16.2823C10.7129 17.2707 9.13344 17.2707 8.1592 16.2823Z" fill="white"/>
</svg>
